PathFileType  4	(X/Y/Z) C:\Users\antoi\Documents\MyRepositories\mobilecap\ResultsAnalysis
DataRate	CameraRate	NumFrames	NumMarkers	Units	OrigDataRate	OrigDataStartFrame	OrigNumFrames
100.0	100.0	4	51	mm	100.0	129	171
Frame#	Time	r_knee			r_shank_antsup			r_ankle			r_calc			r_5meta			r_toe			L_knee			L_shank_antsup			L_ankle			L_calc			L_5meta			L_toe			r_sh2			r_sh3			r_sh4			L_sh2			L_sh3			r_thigh1			r_thigh2			r_thigh3			r_thigh4			r_thigh5			L_thigh1			L_thigh2			L_thigh3			L_thigh4			r.ASIS			r.PSIS			L.ASIS			L.PSIS			C7			R_Shoulder			L_Shoulder			R_Sternum			L_Sternum			R_humerus			R_elbow_med			R_elbow_lat			R_forearm			R_wrist_radius			R_wrist_ulna			L_humerus			L_elbow_med			L_elbow_lat			L_forearm			L_wrist_radius			L_wrist_ulna			R_HJC			L_HJC			R_HJC_reg			L_HJC_reg			
		X1	Y1	Z1	X2	Y2	Z2	X3	Y3	Z3	X4	Y4	Z4	X5	Y5	Z5	X6	Y6	Z6	X7	Y7	Z7	X8	Y8	Z8	X9	Y9	Z9	X10	Y10	Z10	X11	Y11	Z11	X12	Y12	Z12	X13	Y13	Z13	X14	Y14	Z14	X15	Y15	Z15	X16	Y16	Z16	X17	Y17	Z17	X18	Y18	Z18	X19	Y19	Z19	X20	Y20	Z20	X21	Y21	Z21	X22	Y22	Z22	X23	Y23	Z23	X24	Y24	Z24	X25	Y25	Z25	X26	Y26	Z26	X27	Y27	Z27	X28	Y28	Z28	X29	Y29	Z29	X30	Y30	Z30	X31	Y31	Z31	X32	Y32	Z32	X33	Y33	Z33	X34	Y34	Z34	X35	Y35	Z35	X36	Y36	Z36	X37	Y37	Z37	X38	Y38	Z38	X39	Y39	Z39	X40	Y40	Z40	X41	Y41	Z41	X42	Y42	Z42	X43	Y43	Z43	X44	Y44	Z44	X45	Y45	Z45	X46	Y46	Z46	X47	Y47	Z47	X48	Y48	Z48	X49	Y49	Z49	X50	Y50	Z50	X51	Y51	Z51	

129	1.28000000	1251.44639	628.43924	-71.47370	1290.36279	483.01652	-77.84940	1255.87503	115.98127	-96.79374	1209.36480	84.24384	-165.41589	1397.56539	73.83090	-61.26152	1434.49641	110.78267	-106.82891	1024.64292	621.31128	-367.95541	1034.55363	421.40514	-339.47955	904.74165	133.80464	-326.96957	843.74540	113.24054	-263.68991	1033.21839	31.85525	-353.97464	1076.73035	56.83443	-294.69516	1295.69039	370.54389	-87.71275	1224.26910	474.24636	-42.03702	1224.29874	360.90836	-44.30138	969.63644	436.66835	-396.46373	942.10123	324.83754	-375.43821	1212.56798	913.91038	-33.21087	1254.73308	810.91391	-40.23276	1202.61258	766.48801	-33.95133	1108.41250	878.40871	-62.40020	1149.95295	767.84018	-58.09470	1171.04278	891.14879	-377.31820	1133.48313	763.16871	-371.47965	1067.47509	922.59455	-401.39580	1031.53400	791.59621	-399.98991	1197.78462	1196.79684	-78.20742	1028.84107	1227.24584	-188.93025	1233.44083	1154.49648	-353.01197	1040.83692	1224.68373	-281.05456	1194.86939	1663.70523	-398.36025	1251.47803	1672.00381	-208.70780	1252.99636	1546.02018	-535.73394	1305.45646	1564.27314	-323.62388	1308.16502	1545.46840	-376.02503	1112.79038	1484.93967	-57.63237	975.09467	1425.03022	-66.32415	1001.19203	1461.93955	-5.34978	1018.24770	1264.26242	84.75577	1016.83541	1172.66411	114.37823	990.15759	1188.53469	136.57755	1247.02812	1246.69428	-521.14386	1152.98183	1180.18970	-467.07764	1179.27672	1161.01299	-537.27606	1296.37468	991.39925	-511.03258	1339.87353	930.12995	-484.46137	1313.57627	917.92521	-505.72810	1118.45455	1102.56312	-113.58259	1134.10302	1080.60522	-309.21048	1131.83713	1094.76265	-123.58447	1155.71755	1089.66150	-306.97415	
130	1.29000000	1258.77173	626.78092	-73.07550	1302.00275	483.05107	-79.77312	1281.73663	114.97070	-100.23342	1236.14151	82.19723	-168.86033	1424.85931	77.25287	-65.39494	1460.36524	115.95661	-110.65278	1029.26874	621.33902	-368.25850	1037.20115	421.20962	-339.75928	905.43440	134.64684	-327.44777	844.23596	114.48960	-264.14757	1033.24475	31.81871	-354.09930	1076.73730	56.66523	-294.79746	1311.47695	370.86445	-89.97717	1235.98916	471.84300	-44.45018	1240.27110	358.59985	-47.07445	972.83039	437.02433	-396.89156	944.22992	325.38461	-375.77985	1219.81770	911.89236	-33.02552	1261.48513	808.79998	-40.36346	1209.22219	764.56355	-34.78929	1115.80174	876.97383	-63.75730	1156.64379	766.15476	-59.33801	1177.97057	890.14040	-377.17109	1139.46076	762.42305	-371.37725	1074.78081	922.16786	-402.13377	1037.77055	791.42424	-400.36233	1207.20300	1195.10407	-78.18326	1038.09437	1226.27838	-188.47281	1242.33641	1153.42178	-352.80920	1049.81321	1223.93137	-280.67347	1204.44957	1663.34121	-395.81852	1260.92034	1670.54428	-206.28338	1262.46572	1546.61039	-534.09339	1314.89315	1563.50712	-321.81041	1317.58863	1544.99389	-374.38596	1122.51177	1482.50584	-56.17834	984.97122	1422.32318	-65.08597	1010.95038	1459.09093	-3.95726	1028.57774	1261.10308	85.35278	1027.52357	1169.41487	114.67542	1000.77610	1185.11662	136.87047	1255.57701	1247.16221	-520.51932	1161.08551	1180.85799	-466.92508	1187.83686	1161.71173	-536.99477	1303.64193	991.46064	-510.72421	1346.67293	929.85714	-484.05389	1320.49418	917.93348	-505.71482	1127.50397	1101.19316	-113.53977	1142.82940	1079.66172	-309.24013	1141.05343	1093.45404	-123.55198	1164.34686	1088.78882	-306.80513	
131	1.30000000	1266.03722	624.99984	-74.71789	1313.31505	482.99125	-81.76333	1306.56413	114.45916	-103.64404	1261.93251	80.67551	-172.33123	1451.01524	81.02970	-69.44414	1485.06933	121.33049	-114.45463	1034.09896	621.29786	-368.56144	1039.97747	420.96419	-340.02421	906.14538	135.50890	-327.90823	844.76458	115.77994	-264.58338	1033.28266	31.76803	-354.20473	1076.79736	56.48505	-294.89292	1326.73137	371.24410	-92.30481	1247.46606	469.45556	-46.95207	1255.78263	356.47445	-49.89429	976.19771	437.34880	-397.29909	946.44061	325.90973	-376.10192	1227.06592	909.68955	-32.82881	1268.25815	806.47439	-40.55121	1215.76819	762.48897	-35.73150	1123.22960	875.41953	-65.27074	1163.34590	764.48859	-60.72642	1185.02012	889.10289	-377.11643	1145.60070	761.63904	-371.31874	1082.16328	921.70984	-402.94011	1044.15101	791.22463	-400.75914	1216.82754	1193.28640	-78.17892	1047.51755	1225.23606	-187.96645	1251.29452	1152.30291	-352.62959	1058.87626	1223.09985	-280.23815	1214.07495	1662.90766	-393.03122	1270.45648	1668.99383	-203.69893	1271.97117	1547.28065	-532.33704	1324.39230	1562.69804	-319.89325	1327.06796	1544.50641	-372.65414	1132.34790	1479.93056	-54.61195	994.98769	1419.46906	-63.76671	1020.84333	1456.08268	-2.44988	1039.02536	1257.75214	85.99880	1038.33254	1165.96017	114.98104	1011.48746	1181.48659	137.19249	1264.13020	1247.69184	-519.87498	1169.22767	1181.60537	-466.73420	1196.36075	1162.51596	-536.69210	1310.77794	991.49870	-510.46642	1353.26227	929.50514	-483.74391	1327.19185	917.91545	-505.81534	1136.73189	1099.71838	-113.50170	1151.64483	1078.65798	-309.28428	1150.45771	1092.10000	-123.47374	1173.00177	1087.86073	-306.59145	
132	1.31000000	1273.33429	623.13098	-76.37054	1324.33333	482.81589	-83.80021	1330.19045	114.32669	-107.06973	1286.54918	79.58453	-175.87097	1475.83470	84.93152	-73.39800	1508.46377	126.64640	-118.21729	1039.16365	621.19697	-368.85186	1042.97205	420.69197	-340.27931	906.88248	136.40172	-328.31358	845.34570	117.12747	-264.96377	1033.32116	31.70963	-354.28087	1076.90505	56.29383	-294.97087	1341.43399	371.62865	-94.68439	1258.73646	467.09501	-49.47340	1270.80167	354.50133	-52.71863	979.74326	437.65266	-397.66805	948.77506	326.44090	-376.40016	1234.40556	907.34770	-32.67229	1275.19244	803.99198	-40.86180	1222.40032	760.30741	-36.80474	1130.79710	873.78220	-66.86427	1170.20469	762.90834	-62.20072	1192.20628	888.03919	-377.17888	1151.93137	760.82119	-371.32769	1089.63339	921.24048	-403.81176	1050.70882	791.00476	-401.17351	1226.63181	1191.33631	-78.20778	1057.09549	1224.10743	-187.43094	1260.35638	1151.15739	-352.48264	1068.03505	1222.17889	-279.75919	1223.73483	1662.43734	-390.02107	1280.08818	1667.35231	-200.95076	1281.50492	1548.03595	-530.45546	1333.94658	1561.85058	-317.87443	1336.60161	1544.00879	-370.82684	1142.29762	1477.21682	-52.93052	1005.12920	1416.46894	-62.36704	1030.86110	1452.91700	-0.83025	1049.60065	1254.22070	86.69392	1049.24190	1162.30886	115.26983	1022.27800	1177.64242	137.54114	1272.69983	1248.29543	-519.20000	1177.41457	1182.43789	-466.50160	1204.84943	1163.43461	-536.36717	1317.79637	991.52150	-510.26405	1359.64516	929.09427	-483.53922	1333.67407	917.87248	-506.00775	1146.13520	1098.12496	-113.49217	1160.57798	1077.60004	-309.36584	1160.03466	1090.70112	-123.38335	1181.71669	1086.87978	-306.36090	
